<svg xmlns="http://www.w3.org/2000/svg" viewBox="0 0 51.6 48.66"><defs><style>.cls-1{fill:none;}.cls-1,.cls-2{stroke:#000;stroke-miterlimit:10;}.cls-2{fill:#fff;}</style></defs><g id="Layer_2" data-name="Layer 2"><g id="Sw_Knob" data-name="Sw Knob"><polygon points="41.16 44.59 34.59 48.06 29.4 43.66 21.49 43.27 15.97 47.63 9.68 43.87 10.77 37.79 6.69 29.81 0.62 27.37 0.51 20.04 6.7 18.07 11.53 11.32 10.45 4.07 17.01 0.6 22.27 5.06 30.56 4.87 35.62 1.03 42.01 5.23 40.39 11.4 44.39 18.4 50.98 21.29 51.09 28.61 43.93 30.67 39.62 37.87 41.16 44.59"/><polygon class="cls-1" points="40.39 11.4 44.39 18.4 50.98 21.29 51.09 28.61 43.93 30.67 39.62 37.87 41.16 44.59 34.59 48.06 29.4 43.66 21.49 43.27 15.97 47.63 9.68 43.87 10.77 37.79 6.69 29.81 0.62 27.37 0.51 20.04 6.7 18.07 11.53 11.32 10.45 4.07 17.01 0.6 22.27 5.06 30.56 4.87 35.62 1.03 42.01 5.23 40.39 11.4"/><path class="cls-2" d="M7.48,26.32c-.69.93-3.69-.72-4.6-1.42s-.95-1.12-.26-2,3.71-2.66,4.63-2S8.18,25.38,7.48,26.32Z"/><circle class="cls-2" cx="25.03" cy="24.13" r="15.51"/></g></g></svg>